HIERARCHY
ROOT mixamorig:Hips
{
	OFFSET 0.000000 104.274902 0.000000
	CHANNELS 6 Xposition Yposition Zposition Xrotation Yrotation Zrotation
	JOINT mixamorig:Spine
	{
		OFFSET 0.000000 10.181549 0.131524
		CHANNELS 6 Xposition Yposition Zposition Xrotation Yrotation Zrotation
		JOINT mixamorig:Spine1
		{
			OFFSET 0.000000 9.893990 -1.470706
			CHANNELS 3 Xrotation Yrotation Zrotation
			JOINT mixamorig:Spine2
			{
				OFFSET 0.000000 9.220787 -1.370637
				CHANNELS 3 Xrotation Yrotation Zrotation
				JOINT mixamorig:Neck
				{
					OFFSET 0.000000 16.740372 -2.049022
					CHANNELS 6 Xposition Yposition Zposition Xrotation Yrotation Zrotation
					JOINT mixamorig:Head
					{
						OFFSET 0.000000 9.617859 1.684976
						CHANNELS 6 Xposition Yposition Zposition Xrotation Yrotation Zrotation
						JOINT mixamorig:HeadTop_End
						{
							OFFSET 0.000000 22.037384 7.501072
							CHANNELS 6 Xposition Yposition Zposition Xrotation Yrotation Zrotation
							End Site
							{
								OFFSET 0.000000 23.106567 -2.828246
							}
						}
					}
				}
				JOINT mixamorig:RightShoulder
				{
					OFFSET -4.570000 11.014877 -2.160840
					CHANNELS 6 Xposition Yposition Zposition Xrotation Yrotation Zrotation
					JOINT mixamorig:RightArm
					{
						OFFSET -10.592867 -0.524796 -2.232105
						CHANNELS 3 Xrotation Yrotation Zrotation
						JOINT mixamorig:RightForeArm
						{
							OFFSET -27.841497 0.000000 -0.000002
							CHANNELS 3 Xrotation Yrotation Zrotation
							JOINT mixamorig:RightHand
							{
								OFFSET -28.328812 0.000000 -0.000001
								CHANNELS 3 Xrotation Yrotation Zrotation
								JOINT mixamorig:RightHandThumb1
								{
									OFFSET -2.464798 -1.573990 2.681911
									CHANNELS 6 Xposition Yposition Zposition Xrotation Yrotation Zrotation
									JOINT mixamorig:RightHandThumb2
									{
										OFFSET -3.244781 -1.873383 1.873376
										CHANNELS 3 Xrotation Yrotation Zrotation
										JOINT mixamorig:RightHandThumb3
										{
											OFFSET -2.646263 -1.527817 1.527818
											CHANNELS 6 Xposition Yposition Zposition Xrotation Yrotation Zrotation
											JOINT mixamorig:RightHandThumb4
											{
												OFFSET -1.994591 -1.151581 1.151575
												CHANNELS 6 Xposition Yposition Zposition Xrotation Yrotation Zrotation
												End Site
												{
													OFFSET -1.860176 -1.142715 1.365483
												}
											}
										}
									}
								}
								JOINT mixamorig:RightHandIndex1
								{
									OFFSET -9.108299 -0.517883 2.259803
									CHANNELS 6 Xposition Yposition Zposition Xrotation Yrotation Zrotation
									JOINT mixamorig:RightHandIndex2
									{
										OFFSET -3.699997 0.000000 0.000000
										CHANNELS 3 Xrotation Yrotation Zrotation
										JOINT mixamorig:RightHandIndex3
										{
											OFFSET -2.850006 0.000000 0.000000
											CHANNELS 3 Xrotation Yrotation Zrotation
											JOINT mixamorig:RightHandIndex4
											{
												OFFSET -2.772194 0.000000 0.000000
												CHANNELS 3 Xrotation Yrotation Zrotation
												End Site
												{
													OFFSET -2.772202 0.000000 -0.000484
												}
											}
										}
									}
								}
								JOINT mixamorig:RightHandMiddle1
								{
									OFFSET -9.532501 0.000000 -0.000000
									CHANNELS 6 Xposition Yposition Zposition Xrotation Yrotation Zrotation
									JOINT mixamorig:RightHandMiddle2
									{
										OFFSET -3.699997 0.000000 0.000000
										CHANNELS 3 Xrotation Yrotation Zrotation
										JOINT mixamorig:RightHandMiddle3
										{
											OFFSET -2.949997 0.000000 0.000000
											CHANNELS 3 Xrotation Yrotation Zrotation
											JOINT mixamorig:RightHandMiddle4
											{
												OFFSET -2.946594 0.000000 0.000000
												CHANNELS 3 Xrotation Yrotation Zrotation
												End Site
												{
													OFFSET -2.946602 0.000000 -0.000982
												}
											}
										}
									}
								}
								JOINT mixamorig:RightHandRing1
								{
									OFFSET -9.103600 -0.043106 -1.865100
									CHANNELS 6 Xposition Yposition Zposition Xrotation Yrotation Zrotation
									JOINT mixamorig:RightHandRing2
									{
										OFFSET -3.379303 0.000000 0.000000
										CHANNELS 3 Xrotation Yrotation Zrotation
										JOINT mixamorig:RightHandRing3
										{
											OFFSET -2.889694 0.000000 0.000000
											CHANNELS 3 Xrotation Yrotation Zrotation
											JOINT mixamorig:RightHandRing4
											{
												OFFSET -2.638802 0.000000 0.000000
												CHANNELS 3 Xrotation Yrotation Zrotation
												End Site
												{
													OFFSET -2.638802 0.000000 0.004218
												}
											}
										}
									}
								}
								JOINT mixamorig:RightHandPinky1
								{
									OFFSET -8.076698 -0.486725 -3.806299
									CHANNELS 6 Xposition Yposition Zposition Xrotation Yrotation Zrotation
									JOINT mixamorig:RightHandPinky2
									{
										OFFSET -3.600006 0.000000 0.000000
										CHANNELS 3 Xrotation Yrotation Zrotation
										JOINT mixamorig:RightHandPinky3
										{
											OFFSET -2.099998 0.000000 0.000000
											CHANNELS 3 Xrotation Yrotation Zrotation
											JOINT mixamorig:RightHandPinky4
											{
												OFFSET -2.115791 0.000000 0.000000
												CHANNELS 3 Xrotation Yrotation Zrotation
												End Site
												{
													OFFSET -2.115799 0.000000 0.000174
												}
											}
										}
									}
								}
							}
						}
					}
				}
				JOINT mixamorig:LeftShoulder
				{
					OFFSET 4.570400 11.014679 -2.160816
					CHANNELS 6 Xposition Yposition Zposition Xrotation Yrotation Zrotation
					JOINT mixamorig:LeftArm
					{
						OFFSET 10.592373 -0.524597 -2.232116
						CHANNELS 3 Xrotation Yrotation Zrotation
						JOINT mixamorig:LeftForeArm
						{
							OFFSET 27.841488 0.000000 0.000001
							CHANNELS 3 Xrotation Yrotation Zrotation
							JOINT mixamorig:LeftHand
							{
								OFFSET 28.328808 0.000000 -0.000000
								CHANNELS 3 Xrotation Yrotation Zrotation
								JOINT mixamorig:LeftHandThumb1
								{
									OFFSET 2.466103 -1.576202 2.681698
									CHANNELS 6 Xposition Yposition Zposition Xrotation Yrotation Zrotation
									JOINT mixamorig:LeftHandThumb2
									{
										OFFSET 3.243317 -1.872528 1.872530
										CHANNELS 3 Xrotation Yrotation Zrotation
										JOINT mixamorig:LeftHandThumb3
										{
											OFFSET 2.647881 -1.528763 1.528754
											CHANNELS 6 Xposition Yposition Zposition Xrotation Yrotation Zrotation
											JOINT mixamorig:LeftHandThumb4
											{
												OFFSET 1.998924 -1.154083 1.154080
												CHANNELS 6 Xposition Yposition Zposition Xrotation Yrotation Zrotation
												End Site
												{
													OFFSET 1.884041 -1.149155 1.337651
												}
											}
										}
									}
								}
								JOINT mixamorig:LeftHandIndex1
								{
									OFFSET 9.109299 -0.518005 2.259900
									CHANNELS 6 Xposition Yposition Zposition Xrotation Yrotation Zrotation
									JOINT mixamorig:LeftHandIndex2
									{
										OFFSET 3.699997 0.000000 0.000000
										CHANNELS 3 Xrotation Yrotation Zrotation
										JOINT mixamorig:LeftHandIndex3
										{
											OFFSET 2.850006 0.000000 0.000000
											CHANNELS 3 Xrotation Yrotation Zrotation
											JOINT mixamorig:LeftHandIndex4
											{
												OFFSET 2.774895 0.000000 0.000000
												CHANNELS 3 Xrotation Yrotation Zrotation
												End Site
												{
													OFFSET 2.774902 0.000000 -0.000072
												}
											}
										}
									}
								}
								JOINT mixamorig:LeftHandMiddle1
								{
									OFFSET 9.533401 0.000000 0.000000
									CHANNELS 6 Xposition Yposition Zposition Xrotation Yrotation Zrotation
									JOINT mixamorig:LeftHandMiddle2
									{
										OFFSET 3.699997 0.000000 0.000000
										CHANNELS 3 Xrotation Yrotation Zrotation
										JOINT mixamorig:LeftHandMiddle3
										{
											OFFSET 2.949997 0.000000 0.000000
											CHANNELS 3 Xrotation Yrotation Zrotation
											JOINT mixamorig:LeftHandMiddle4
											{
												OFFSET 2.952896 0.000000 0.000000
												CHANNELS 3 Xrotation Yrotation Zrotation
												End Site
												{
													OFFSET 2.952904 0.000000 0.000165
												}
											}
										}
									}
								}
								JOINT mixamorig:LeftHandRing1
								{
									OFFSET 9.104500 -0.042999 -1.865101
									CHANNELS 6 Xposition Yposition Zposition Xrotation Yrotation Zrotation
									JOINT mixamorig:LeftHandRing2
									{
										OFFSET 3.149994 0.000000 0.000000
										CHANNELS 3 Xrotation Yrotation Zrotation
										JOINT mixamorig:LeftHandRing3
										{
											OFFSET 2.950005 0.000000 0.000000
											CHANNELS 3 Xrotation Yrotation Zrotation
											JOINT mixamorig:LeftHandRing4
											{
												OFFSET 2.644302 0.000000 0.000000
												CHANNELS 3 Xrotation Yrotation Zrotation
												End Site
												{
													OFFSET 2.644302 0.000000 0.000083
												}
											}
										}
									}
								}
								JOINT mixamorig:LeftHandPinky1
								{
									OFFSET 8.077805 -0.486893 -3.806302
									CHANNELS 6 Xposition Yposition Zposition Xrotation Yrotation Zrotation
									JOINT mixamorig:LeftHandPinky2
									{
										OFFSET 3.600006 0.000000 0.000000
										CHANNELS 3 Xrotation Yrotation Zrotation
										JOINT mixamorig:LeftHandPinky3
										{
											OFFSET 2.099998 0.000000 0.000000
											CHANNELS 3 Xrotation Yrotation Zrotation
											JOINT mixamorig:LeftHandPinky4
											{
												OFFSET 2.125496 0.000000 0.000000
												CHANNELS 3 Xrotation Yrotation Zrotation
												End Site
												{
													OFFSET 2.125504 0.000000 -0.001254
												}
											}
										}
									}
								}
							}
						}
					}
				}
			}
		}
	}
	JOINT mixamorig:RightUpLeg
	{
		OFFSET -8.207800 -6.751701 -1.599544
		CHANNELS 6 Xposition Yposition Zposition Xrotation Yrotation Zrotation
		JOINT mixamorig:RightLeg
		{
			OFFSET 0.000004 -44.370152 0.345934
			CHANNELS 3 Xrotation Yrotation Zrotation
			JOINT mixamorig:RightFoot
			{
				OFFSET 0.000004 -44.423664 -3.043535
				CHANNELS 3 Xrotation Yrotation Zrotation
				JOINT mixamorig:RightToeBase
				{
					OFFSET 0.000001 -8.728691 10.710592
					CHANNELS 3 Xrotation Yrotation Zrotation
					JOINT mixamorig:RightToe_End
					{
						OFFSET 0.000000 -0.000665 9.278101
						CHANNELS 3 Xrotation Yrotation Zrotation
						End Site
						{
							OFFSET 0.000000 -0.000665 9.278103
						}
					}
				}
			}
		}
	}
	JOINT mixamorig:LeftUpLeg
	{
		OFFSET 8.207800 -6.751701 -1.599544
		CHANNELS 6 Xposition Yposition Zposition Xrotation Yrotation Zrotation
		JOINT mixamorig:LeftLeg
		{
			OFFSET 0.000004 -44.370037 0.346940
			CHANNELS 3 Xrotation Yrotation Zrotation
			JOINT mixamorig:LeftFoot
			{
				OFFSET 0.000004 -44.423611 -3.044388
				CHANNELS 3 Xrotation Yrotation Zrotation
				JOINT mixamorig:LeftToeBase
				{
					OFFSET 0.000001 -8.728690 10.710592
					CHANNELS 3 Xrotation Yrotation Zrotation
					JOINT mixamorig:LeftToe_End
					{
						OFFSET 0.000000 -0.000680 9.278101
						CHANNELS 3 Xrotation Yrotation Zrotation
						End Site
						{
							OFFSET 0.000000 -0.000680 9.278101
						}
					}
				}
			}
		}
	}
}
MOTION
Frames: 4
Frame Time: 0.033333
0.513012 100.931030 1.384933 -1.860380 7.817883 -3.164571 -0.000000 10.181574 0.131523 1.807734 -0.629691 2.199144 1.604729 0.049448 3.518973 1.609149 0.155856 3.489887 -0.000000 16.740370 -2.049023 2.549696 -2.585724 3.200285 0.000003 9.617894 1.684974 -12.563209 -3.478880 -3.371267 -0.000002 22.037354 7.501076 -0.000001 0.000000 0.000001 -4.570002 11.014870 -2.160841 4.700983 -0.327112 5.020209 8.003138 9.180086 58.731793 -0.000020 22.125261 0.000021 -2.133718 0.763794 18.719271 -2.464806 -1.573992 2.681907 -6.901952 8.181157 -4.018447 7.464508 -23.792692 -2.837917 -2.646271 -1.527819 1.527814 -4.037306 -18.149542 -17.326593 -1.994578 -1.151583 1.151576 0.000002 -0.000002 -0.000002 -9.108284 -0.517882 2.259805 -1.992624 5.229595 14.550683 0.223273 -1.426126 17.794929 0.069990 -0.805202 9.934771 -0.000000 -0.000001 0.000002 -9.532493 0.000004 -0.000000 0.314692 -3.835299 19.453680 0.223282 -1.426126 17.794938 0.069964 -0.805203 9.934755 -0.000001 0.000002 -0.000001 -9.103602 -0.043102 -1.865104 2.703343 -9.946661 21.118610 0.223683 -1.427505 17.812770 0.070014 -0.805281 9.935483 -0.000001 -0.000001 0.000001 -8.076702 -0.486727 -3.806300 3.960670 -16.894480 24.893782 0.594433 -2.278644 29.239295 0.069984 -0.805203 9.934757 -0.000000 0.000002 -0.000002 4.570402 11.014692 -2.160817 -0.291687 -10.852234 -17.310621 10.918175 -8.209498 -51.725552 -0.000006 -21.838010 -0.000006 -21.906899 7.797314 -8.196855 2.466102 -1.576198 2.681702 -6.000621 -6.126729 4.616789 7.230313 21.960035 2.178835 2.647897 -1.528772 1.528756 -5.596045 12.091068 16.242890 1.998920 -1.154081 1.154084 -0.000001 0.000001 0.000002 9.109296 -0.518022 2.259901 -2.034588 -4.751682 -15.395229 0.279833 1.790730 -17.763013 0.087691 1.011023 -9.916117 -0.000000 0.000000 -0.000001 9.533401 0.000003 0.000001 0.422544 4.378014 -20.122301 0.279830 1.790725 -17.763027 0.087698 1.011015 -9.916127 0.000000 0.000000 -0.000000 9.104506 -0.043006 -1.865100 2.889995 10.489036 -21.682946 0.280382 1.792464 -17.780832 0.087701 1.011087 -9.916834 0.000000 -0.000001 -0.000002 8.077818 -0.486894 -3.806297 4.243182 17.490911 -25.349412 0.745259 2.861463 -29.192536 0.087699 1.011026 -9.916116 -0.000000 -0.000001 -0.000002 -8.207798 -6.751684 -1.599543 -4.771326 -6.452806 7.283925 20.730439 -9.171728 3.861876 -14.714901 -3.244604 -6.101752 -2.698772 -0.000004 0.000002 0.000000 -0.000000 -0.000000 8.207801 -6.751684 -1.599543 -8.495432 11.079065 17.161479 14.165570 -8.740030 5.732655 -8.420033 -4.393801 -16.420700 -2.086151 -0.000005 0.000001 -0.000000 -0.000001 0.000000 
0.564357 100.936432 1.422715 -1.869188 7.812848 -3.174451 0.000000 10.181562 0.131522 1.792815 -0.625461 2.183062 1.594656 0.052369 3.503785 1.599065 0.158647 3.474719 0.000001 16.740393 -2.049021 2.598581 -2.596697 3.253191 0.000002 9.617874 1.684979 -12.359157 -3.531651 -3.260906 -0.000001 22.037354 7.501072 0.000001 0.000000 0.000000 -4.570001 11.014883 -2.160841 4.705932 -0.313195 5.070511 7.979698 9.323644 58.845310 -0.000014 22.004148 0.000036 -2.144990 0.824421 18.761273 -2.464791 -1.573998 2.681906 -6.901955 8.181158 -4.018444 7.464482 -23.792701 -2.837943 -2.646263 -1.527817 1.527816 -4.037292 -18.149536 -17.326600 -1.994578 -1.151590 1.151572 0.000000 -0.000000 -0.000002 -9.108303 -0.517887 2.259799 -1.992632 5.229596 14.550673 0.223278 -1.426133 17.794929 0.069975 -0.805192 9.934773 0.000000 0.000000 0.000003 -9.532496 0.000002 -0.000003 0.314674 -3.835305 19.453646 0.223280 -1.426139 17.794941 0.069975 -0.805197 9.934731 0.000001 -0.000002 0.000002 -9.103597 -0.043102 -1.865104 2.703327 -9.946670 21.118578 0.223706 -1.427509 17.812770 0.070010 -0.805266 9.935501 0.000001 0.000001 0.000005 -8.076694 -0.486712 -3.806302 3.960645 -16.894487 24.893770 0.594463 -2.278658 29.239295 0.069982 -0.805199 9.934781 0.000000 -0.000000 0.000001 4.570405 11.014688 -2.160814 -0.290745 -10.881559 -17.265637 10.845867 -8.385082 -51.840665 0.000001 -21.645423 -0.000000 -22.119023 7.834723 -8.119989 2.466095 -1.576193 2.681704 -6.006854 -6.102555 4.634352 7.230311 21.960030 2.178838 2.647893 -1.528754 1.528753 -5.596042 12.091066 16.242887 1.998922 -1.154083 1.154079 -0.000000 0.000001 -0.000002 9.109287 -0.518016 2.259902 -2.033081 -4.746280 -15.449763 0.284455 1.805119 -17.910653 0.088649 1.016456 -9.970013 -0.000000 -0.000000 0.000000 9.533404 0.000010 0.000000 0.425119 4.384962 -20.194791 0.284455 1.805111 -17.910634 0.088647 1.016455 -9.970011 -0.000000 0.000000 -0.000001 9.104500 -0.043008 -1.865102 2.903289 10.495028 -21.772889 0.285038 1.806952 -17.929525 0.088664 1.016527 -9.970731 -0.000000 0.000000 0.000002 8.077806 -0.486892 -3.806300 4.247282 17.499132 -25.439391 0.752649 2.874648 -29.340382 0.088649 1.016459 -9.970013 0.000002 -0.000001 0.000003 -8.207798 -6.751709 -1.599543 -4.723518 -6.399687 7.274371 20.695958 -9.203478 3.863093 -14.717941 -3.243923 -6.076710 -2.687033 -0.000001 0.000000 0.000000 0.000001 0.000000 8.207800 -6.751705 -1.599544 -8.479629 11.082909 17.149973 14.220068 -8.735584 5.732473 -8.476768 -4.388793 -16.389642 -2.086147 0.000001 0.000004 -0.000000 -0.000000 0.000000 
0.622482 100.942581 1.468175 -1.875908 7.810990 -3.183075 0.000000 10.181556 0.131523 1.775459 -0.624318 2.160805 1.582894 0.053384 3.483829 1.587317 0.159565 3.454776 -0.000001 16.740366 -2.049020 2.644695 -2.616879 3.306444 -0.000001 9.617834 1.684977 -12.205416 -3.644127 -3.127994 -0.000003 22.037369 7.501072 -0.000000 -0.000000 0.000000 -4.569998 11.014875 -2.160838 4.710636 -0.309925 5.116472 7.979052 9.482754 58.950926 -0.000014 21.938107 0.000033 -2.184492 0.903507 18.805900 -2.464804 -1.574002 2.681909 -6.901987 8.181170 -4.018444 7.464505 -23.792698 -2.837922 -2.646263 -1.527809 1.527815 -4.037305 -18.149551 -17.326575 -1.994579 -1.151580 1.151577 0.000002 -0.000001 0.000001 -9.108303 -0.517882 2.259802 -1.992663 5.229600 14.550680 0.223273 -1.426133 17.794943 0.069982 -0.805205 9.934746 0.000001 0.000001 0.000002 -9.532504 0.000008 -0.000002 0.314648 -3.835301 19.453656 0.223280 -1.426133 17.794931 0.069973 -0.805206 9.934759 0.000003 -0.000001 0.000003 -9.103617 -0.043097 -1.865100 2.703312 -9.946666 21.118602 0.223699 -1.427516 17.812775 0.070006 -0.805265 9.935469 -0.000000 -0.000002 0.000000 -8.076707 -0.486724 -3.806300 3.960632 -16.894495 24.893782 0.594447 -2.278650 29.239299 0.069972 -0.805201 9.934742 -0.000001 0.000002 0.000001 4.570405 11.014696 -2.160814 -0.290641 -10.915453 -17.227993 10.807039 -8.542091 -51.934709 0.000006 -21.510059 -0.000004 -22.298599 7.879793 -8.112218 2.466097 -1.576208 2.681700 -6.025108 -6.031955 4.685823 7.230309 21.960033 2.178833 2.647885 -1.528754 1.528748 -5.596042 12.091066 16.242887 1.998932 -1.154086 1.154078 0.000001 -0.000001 -0.000000 9.109285 -0.518007 2.259899 -2.028687 -4.730506 -15.609178 0.298204 1.847093 -18.342102 0.091456 1.032341 -10.127533 0.000001 -0.000002 -0.000000 9.533398 0.000005 -0.000002 0.432642 4.405264 -20.406546 0.298209 1.847087 -18.342085 0.091462 1.032346 -10.127524 -0.000000 0.000000 -0.000002 9.104490 -0.043009 -1.865102 2.942156 10.512337 -22.035807 0.298908 1.849235 -18.364143 0.091481 1.032415 -10.128217 0.000000 -0.000000 -0.000000 8.077802 -0.486893 -3.806304 4.259316 17.523103 -25.702355 0.774473 2.913068 -29.772494 0.091451 1.032345 -10.127525 0.000003 -0.000002 0.000001 -8.207800 -6.751694 -1.599544 -4.670077 -6.386970 7.250143 20.665933 -9.191411 3.867640 -14.722109 -3.247450 -6.044922 -2.671489 0.000002 0.000001 0.000000 -0.000001 -0.000000 8.207798 -6.751697 -1.599544 -8.459891 11.084224 17.132865 14.275808 -8.729692 5.731836 -8.539235 -4.383497 -16.354902 -2.086145 -0.000001 0.000000 -0.000000 -0.000001 0.000000 
0.686107 100.946571 1.519284 -1.880058 7.815715 -3.188408 -0.000000 10.181550 0.131522 1.754875 -0.627339 2.126201 1.568820 0.051739 3.455851 1.573280 0.157849 3.426812 0.000001 16.740364 -2.049023 2.689837 -2.647283 3.368533 0.000000 9.617824 1.684980 -12.100008 -3.805389 -2.982613 0.000001 22.037384 7.501069 0.000000 -0.000000 -0.000000 -4.569999 11.014883 -2.160841 4.715546 -0.316068 5.162482 7.968514 9.637131 59.052545 -0.000018 21.879201 0.000016 -2.254420 0.992607 18.848037 -2.464797 -1.573990 2.681910 -6.901970 8.181176 -4.018408 7.464487 -23.792703 -2.837928 -2.646279 -1.527811 1.527814 -4.037283 -18.149536 -17.326607 -1.994582 -1.151584 1.151571 0.000005 -0.000002 -0.000004 -9.108315 -0.517882 2.259802 -1.992643 5.229600 14.550676 0.223277 -1.426133 17.794926 0.069979 -0.805197 9.934752 -0.000000 0.000001 0.000001 -9.532500 0.000001 0.000000 0.314668 -3.835303 19.453651 0.223269 -1.426129 17.794938 0.069980 -0.805205 9.934755 -0.000002 0.000001 0.000005 -9.103609 -0.043102 -1.865102 2.703318 -9.946669 21.118593 0.223713 -1.427506 17.812771 0.070005 -0.805262 9.935471 -0.000001 -0.000001 0.000005 -8.076705 -0.486706 -3.806299 3.960645 -16.894485 24.893772 0.594442 -2.278657 29.239268 0.069995 -0.805212 9.934759 -0.000003 0.000002 0.000001 4.570401 11.014675 -2.160816 -0.290634 -10.957693 -17.183077 10.801469 -8.668654 -52.005699 -0.000014 -21.433851 -0.000024 -22.447176 7.915937 -8.149171 2.466117 -1.576191 2.681705 -6.054725 -5.917849 4.769197 7.230310 21.960035 2.178840 2.647908 -1.528764 1.528753 -5.596045 12.091067 16.242885 1.998917 -1.154070 1.154074 0.000001 0.000004 0.000003 9.109297 -0.518008 2.259903 -2.021487 -4.705013 -15.867043 0.321125 1.914787 -19.040204 0.096102 1.058033 -10.382381 -0.000000 0.000000 0.000001 9.533405 0.000004 0.000004 0.444980 4.438044 -20.749194 0.321123 1.914785 -19.040208 0.096106 1.058035 -10.382366 0.000000 0.000000 0.000002 9.104509 -0.043006 -1.865099 3.005153 10.539708 -22.461212 0.322024 1.917415 -19.067363 0.096122 1.058096 -10.383032 -0.000000 -0.000001 0.000003 8.077815 -0.486893 -3.806300 4.279005 17.561774 -26.127868 0.810387 2.974883 -30.471683 0.096102 1.058037 -10.382355 0.000000 0.000000 0.000001 -8.207797 -6.751690 -1.599544 -4.613305 -6.414713 7.211595 20.642305 -9.142951 3.872454 -14.738686 -3.257033 -5.998037 -2.648897 0.000003 0.000000 -0.000000 -0.000001 0.000000 8.207799 -6.751685 -1.599544 -8.449375 11.080437 17.111053 14.353735 -8.726428 5.730805 -8.615778 -4.377665 -16.315046 -2.086138 0.000003 -0.000005 -0.000000 -0.000000 0.000000 
